<?xml version="1.0" encoding="iso-8859-1"?>
<!-- Generator: Adobe Illustrator 24.0.3, SVG Export Plug-In . SVG Version: 6.00 Build 0)  -->
<svg version="1.1" xmlns="http://www.w3.org/2000/svg" xmlns:xlink="http://www.w3.org/1999/xlink" x="0px" y="0px"
	 viewBox="0 0 64 64" style="enable-background:new 0 0 64 64;" xml:space="preserve">
<g id="globe-router">
	<path style="fill:#ABD8C7;" d="M58.413,37.98H5.587c-2.038,0-3.702,1.659-3.702,3.702v2.542c0,2.038,1.664,3.697,3.702,3.697
		h52.827c2.043,0,3.702-1.659,3.702-3.697v-2.542C62.115,39.639,60.456,37.98,58.413,37.98z M9.629,45.811
		c-1.578,0-2.863-1.285-2.863-2.858c0-1.578,1.285-2.858,2.863-2.858c1.573,0,2.858,1.28,2.858,2.858
		C12.487,44.526,11.202,45.811,9.629,45.811z M47.854,46.18h-1.889v-6.455h1.889V46.18z M51.824,46.18H49.94v-6.455h1.885V46.18z
		 M55.795,46.18H53.91v-6.455h1.885V46.18z"/>
	<g>
		<path style="fill:#9AC1B1;" d="M10.136,45.103c-0.861,0.094-2.442-1.144-2.381-2.112c0.052-0.837,0.902-1.773,2.381-2.114
			c-0.508-0.461-1.179-0.744-1.916-0.744c-1.578,0-2.863,1.28-2.863,2.858c0,1.573,1.285,2.858,2.863,2.858
			C8.956,45.849,9.628,45.564,10.136,45.103z"/>
		<path style="fill:#9AC1B1;" d="M59.881,38.018h-3.836c2.043,0,3.702,1.659,3.702,3.702v2.542c0,2.038-1.659,3.697-3.702,3.697
			h3.836c2.043,0,3.702-1.659,3.702-3.697V41.72C63.583,39.677,61.924,38.018,59.881,38.018z"/>
	</g>
	<circle style="fill:#9AC1B1;" cx="32" cy="17.532" r="14.418"/>
	<path style="fill:#47705D;" d="M32,2.086c-8.517,0-15.446,6.929-15.446,15.446S23.483,32.978,32,32.978s15.446-6.929,15.446-15.446
		S40.517,2.086,32,2.086z M27.679,4.69c-0.542,0.724-1.036,1.563-1.467,2.532c-0.59-0.278-1.151-0.619-1.702-0.983
		C25.488,5.592,26.552,5.074,27.679,4.69z M22.97,7.447c0.815,0.585,1.664,1.117,2.575,1.535c-0.719,2.191-1.161,4.786-1.242,7.606
		h-5.812C18.741,12.962,20.419,9.735,22.97,7.447z M18.491,18.472h5.812c0.082,2.825,0.523,5.419,1.242,7.61
		c-0.911,0.417-1.76,0.945-2.575,1.535C20.419,25.33,18.741,22.097,18.491,18.472z M24.51,28.825
		c0.551-0.369,1.113-0.705,1.702-0.983c0.432,0.969,0.926,1.808,1.467,2.532C26.552,29.991,25.488,29.473,24.51,28.825z
		 M31.06,30.892c-1.137-0.475-2.239-1.779-3.112-3.731c1.002-0.312,2.043-0.504,3.112-0.58V30.892z M31.06,24.697
		c-1.29,0.077-2.556,0.317-3.779,0.71c-0.609-1.923-1.012-4.273-1.093-6.934h4.872V24.697z M31.06,16.587h-4.867
		c0.086-2.388,0.489-4.829,1.141-6.915c1.204,0.384,2.455,0.619,3.726,0.695V16.587z M31.06,8.478
		C30,8.406,28.974,8.219,27.981,7.912c0.81-1.88,1.861-3.275,3.079-3.755V8.478z M45.514,16.587h-5.817
		c-0.082-2.82-0.523-5.414-1.237-7.606c0.906-0.417,1.76-0.95,2.575-1.535C43.586,9.735,45.259,12.962,45.514,16.587z M39.49,6.239
		c-0.547,0.364-1.113,0.705-1.702,0.983c-0.427-0.969-0.926-1.808-1.463-2.532C37.452,5.074,38.517,5.592,39.49,6.239z
		 M32.945,4.158c1.218,0.48,2.263,1.875,3.079,3.755C35.031,8.219,34,8.406,32.945,8.478V4.158z M32.945,10.368
		c1.266-0.077,2.522-0.312,3.726-0.695c0.652,2.086,1.055,4.527,1.137,6.915h-4.863V10.368z M32.945,18.472h4.863
		c-0.082,2.393-0.484,4.829-1.137,6.92c-1.208-0.384-2.46-0.619-3.726-0.695V18.472z M32.945,30.907v-4.325
		c1.055,0.072,2.086,0.264,3.074,0.571C35.208,29.032,34.158,30.422,32.945,30.907z M36.325,30.374
		c0.537-0.724,1.036-1.563,1.463-2.532c0.59,0.278,1.156,0.614,1.702,0.983C38.517,29.473,37.452,29.991,36.325,30.374z
		 M41.035,27.617c-0.815-0.59-1.669-1.117-2.575-1.535c0.715-2.192,1.156-4.786,1.237-7.61h5.817
		C45.259,22.097,43.586,25.33,41.035,27.617z M53.91,39.725v6.455h1.885v-6.455H53.91z M49.94,46.18h1.885v-6.455H49.94V46.18z
		 M45.964,46.18h1.889v-6.455h-1.889V46.18z M9.629,40.095c-1.578,0-2.863,1.28-2.863,2.858c0,1.573,1.285,2.858,2.863,2.858
		c1.573,0,2.858-1.285,2.858-2.858C12.487,41.375,11.202,40.095,9.629,40.095z M9.629,43.926c-0.537,0-0.973-0.436-0.973-0.973
		c0-0.537,0.436-0.973,0.973-0.973s0.973,0.436,0.973,0.973C10.603,43.49,10.166,43.926,9.629,43.926z M64,32.216v-2.542
		c0-3.079-2.503-5.587-5.587-5.587h-9.255c-0.245,0.647-0.523,1.276-0.839,1.885h10.094c2.043,0,3.702,1.659,3.702,3.702v2.542
		c0,2.038-1.659,3.697-3.702,3.697H5.587c-2.038,0-3.702-1.659-3.702-3.697v-2.542c0-2.043,1.664-3.702,3.702-3.702h10.094
		c-0.317-0.609-0.59-1.237-0.839-1.885H5.587C2.508,24.088,0,26.596,0,29.674v2.542c0,1.995,1.055,3.745,2.633,4.733
		C1.055,37.937,0,39.687,0,41.682v2.542c0,3.079,2.508,5.587,5.587,5.587h6.675v5.74H8.723c-0.518,0-0.94,0.422-0.94,0.945v1.295
		h-7.74v1.885h7.74v1.295c0,0.523,0.422,0.945,0.94,0.945h8.967c0.518,0,0.94-0.422,0.94-0.945v-1.295h26.375v1.295
		c0,0.523,0.422,0.945,0.945,0.945h8.963c0.518,0,0.94-0.422,0.94-0.945v-1.295h8.109V57.79h-8.109v-1.295
		c0-0.523-0.422-0.945-0.94-0.945h-3.539v-5.74h7.04c3.083,0,5.587-2.508,5.587-5.587v-2.542c0-1.995-1.055-3.745-2.633-4.733
		C62.945,35.961,64,34.211,64,32.216z M16.746,60.029H9.668v-2.59h7.078V60.029z M45.005,56.495v1.295H18.63v-1.295
		c0-0.523-0.422-0.945-0.94-0.945h-3.539v-5.74h35.338v5.74H45.95C45.427,55.55,45.005,55.972,45.005,56.495z M53.968,57.44v2.59
		H46.89v-2.59H53.968z M62.115,41.682v2.542c0,2.038-1.659,3.697-3.702,3.697H5.587c-2.038,0-3.702-1.659-3.702-3.697v-2.542
		c0-2.043,1.664-3.702,3.702-3.702h52.827C60.456,37.98,62.115,39.639,62.115,41.682z M53.91,46.18h1.885v-6.455H53.91V46.18z
		 M49.94,46.18h1.885v-6.455H49.94V46.18z M45.964,46.18h1.889v-6.455h-1.889V46.18z M9.629,40.095c-1.578,0-2.863,1.28-2.863,2.858
		c0,1.573,1.285,2.858,2.863,2.858c1.573,0,2.858-1.285,2.858-2.858C12.487,41.375,11.202,40.095,9.629,40.095z M9.629,43.926
		c-0.537,0-0.973-0.436-0.973-0.973c0-0.537,0.436-0.973,0.973-0.973s0.973,0.436,0.973,0.973
		C10.603,43.49,10.166,43.926,9.629,43.926z M9.629,40.095c-1.578,0-2.863,1.28-2.863,2.858c0,1.573,1.285,2.858,2.863,2.858
		c1.573,0,2.858-1.285,2.858-2.858C12.487,41.375,11.202,40.095,9.629,40.095z M9.629,43.926c-0.537,0-0.973-0.436-0.973-0.973
		c0-0.537,0.436-0.973,0.973-0.973s0.973,0.436,0.973,0.973C10.603,43.49,10.166,43.926,9.629,43.926z M9.629,28.087
		c-1.578,0-2.863,1.28-2.863,2.858c0,1.573,1.285,2.858,2.863,2.858c1.573,0,2.858-1.285,2.858-2.858
		C12.487,29.367,11.202,28.087,9.629,28.087z M9.629,31.918c-0.537,0-0.973-0.436-0.973-0.973s0.436-0.973,0.973-0.973
		s0.973,0.436,0.973,0.973S10.166,31.918,9.629,31.918z M45.964,39.725v6.455h1.889v-6.455H45.964z M49.94,39.725v6.455h1.885
		v-6.455H49.94z M53.91,39.725v6.455h1.885v-6.455H53.91z M45.964,27.718v6.455h1.889v-6.455H45.964z M49.94,27.718v6.455h1.885
		v-6.455H49.94z M53.91,27.718v6.455h1.885v-6.455H53.91z"/>
</g>
<g id="Layer_1">
</g>
</svg>
